<svg width="200" height="200" viewBox="0 0 200 200" fill="none" xmlns="http://www.w3.org/2000/svg">
<path d="M100 16.6668C54.0003 16.6668 16.667 54.0001 16.667 100C16.667 146 54.0003 183.333 100 183.333C146 183.333 183.334 146 183.334 100C183.334 54.0001 146 16.6668 100 16.6668ZM100 166.667C63.2503 166.667 33.3337 136.75 33.3337 100C33.3337 63.2501 63.2503 33.3335 100 33.3335C136.75 33.3335 166.667 63.2501 166.667 100C166.667 136.75 136.75 166.667 100 166.667ZM138.25 63.1668L83.3337 118.083L61.7503 96.5835L50.0003 108.333L83.3337 141.667L150 75.0001L138.25 63.1668Z" fill="#31CC44"/>
</svg>
