<svg width="200" height="200" viewBox="0 0 200 200" fill="none" xmlns="http://www.w3.org/2000/svg">
<path d="M121.583 66.6667L99.9998 88.2501L78.4165 66.6667L66.6665 78.4167L88.2498 100L66.6665 121.583L78.4165 133.333L99.9998 111.75L121.583 133.333L133.333 121.583L111.75 100L133.333 78.4167L121.583 66.6667ZM99.9998 16.6667C53.9165 16.6667 16.6665 53.9167 16.6665 100C16.6665 146.083 53.9165 183.333 99.9998 183.333C146.083 183.333 183.333 146.083 183.333 100C183.333 53.9167 146.083 16.6667 99.9998 16.6667ZM99.9998 166.667C63.2498 166.667 33.3332 136.75 33.3332 100C33.3332 63.2501 63.2498 33.3334 99.9998 33.3334C136.75 33.3334 166.667 63.2501 166.667 100C166.667 136.75 136.75 166.667 99.9998 166.667Z" fill="#31CC44"/>
</svg>
