<svg width="200" height="200" viewBox="0 0 200 200" fill="none" xmlns="http://www.w3.org/2000/svg">
<path d="M113.5 25.0002C72.0831 25.0002 38.4998 58.5836 38.4998 100C38.4998 100.5 38.5831 101 38.5831 101.584L23.2498 86.2502L11.4998 98.0002L46.8331 133.334L82.1664 98.0002L70.4164 86.2502L55.2498 101.417C55.2498 100.917 55.1664 100.5 55.1664 100C55.1664 67.8336 81.3331 41.6669 113.5 41.6669C145.666 41.6669 171.833 67.8336 171.833 100C171.833 132.167 145.666 158.334 113.5 158.334C97.6664 158.334 83.3331 152 72.8331 141.75L60.9998 153.5C74.4997 166.75 93.0831 175 113.5 175C154.916 175 188.5 141.417 188.5 100C188.5 58.5836 154.916 25.0002 113.5 25.0002ZM130.166 91.6669V83.3336C130.166 74.1669 122.666 66.6669 113.5 66.6669C104.333 66.6669 96.8331 74.1669 96.8331 83.3336V91.6669C92.2498 91.6669 88.4998 95.4169 88.4998 100V125C88.4998 129.584 92.2498 133.334 96.8331 133.334H130.166C134.75 133.334 138.5 129.584 138.5 125V100C138.5 95.4169 134.75 91.6669 130.166 91.6669ZM121.833 91.6669H105.166V83.3336C105.166 78.7502 108.916 75.0002 113.5 75.0002C118.083 75.0002 121.833 78.7502 121.833 83.3336V91.6669Z" fill="#31CC44"/>
</svg>
