<svg width="200" height="200" viewBox="0 0 200 200" fill="none" xmlns="http://www.w3.org/2000/svg">
<path d="M129.167 91.6667C136.07 91.6667 141.667 86.0703 141.667 79.1667C141.667 72.2631 136.07 66.6667 129.167 66.6667C122.263 66.6667 116.667 72.2631 116.667 79.1667C116.667 86.0703 122.263 91.6667 129.167 91.6667Z" fill="#31CC44"/>
<path d="M70.8334 91.6667C77.7369 91.6667 83.3334 86.0703 83.3334 79.1667C83.3334 72.2631 77.7369 66.6667 70.8334 66.6667C63.9298 66.6667 58.3334 72.2631 58.3334 79.1667C58.3334 86.0703 63.9298 91.6667 70.8334 91.6667Z" fill="#31CC44"/>
<path d="M100 116.667C80.5834 116.667 64 128.75 57.3334 145.833H71.25C77 135.917 87.6667 129.167 100 129.167C112.333 129.167 122.917 135.917 128.75 145.833H142.667C136 128.75 119.417 116.667 100 116.667ZM99.9167 16.6667C53.9167 16.6667 16.6667 54 16.6667 100C16.6667 146 53.9167 183.333 99.9167 183.333C146 183.333 183.333 146 183.333 100C183.333 54 146 16.6667 99.9167 16.6667ZM100 166.667C63.1667 166.667 33.3334 136.833 33.3334 100C33.3334 63.1667 63.1667 33.3334 100 33.3334C136.833 33.3334 166.667 63.1667 166.667 100C166.667 136.833 136.833 166.667 100 166.667Z" fill="#31CC44"/>
</svg>
